<?xml version="1.0" encoding="UTF-8"?>
<svg id="Capa_1" data-name="Capa 1" xmlns="http://www.w3.org/2000/svg" viewBox="0 0 456.98 98.71">
  <defs>
    <style>
      .cls-1 {
        fill: #e9747d;
      }

      .cls-2 {
        fill: #0b9489;
        font-family: Poppins-Light, Poppins;
        font-size: 15.21px;
        font-weight: 300;
        letter-spacing: .17em;
      }

      .cls-3 {
        fill: #00968b;
      }

      .cls-4 {
        fill: #1e293b;
        font-family: Poppins-ExtraBold, Poppins;
        font-size: 36.3px;
        font-weight: 700;
        letter-spacing: 0em;
      }
    </style>
  </defs>
  <path class="cls-3" d="M53.8,98.71s-.03,0-.04,0c-.41-.02-.72-.37-.69-.78.69-11.52,6.07-17.92,14.79-17.57.72.03,1.44.1,2.13.16,1.35.13,2.62.24,3.91.12,5.38-.52,5.22-7.65,5.07-14.54-.13-5.73-.25-11.14,2.82-13.01.14-.08.27-.16.41-.24.14-.08.27-.15.4-.23.78-.49,1.72-1.27,1.78-2.21.06-.94-.78-1.84-1.49-2.43-2.88-2.37-5.35-5.46-7.53-9.46-1.2-2.19-1.58-4.56-1.16-7.23l.09-.55c.2-1.18.38-2.3.06-3.38-3.2-10.93-9.2-18.17-18.34-22.13-5.61-2.44-11.81-3.66-18.94-3.74-5.63-.06-11.61.22-17.18,2.7C10.34,8.42,3.81,16.84,1.97,27.28c-1.76,10,1.26,20.18,7.89,26.57.29.28.3.75.02,1.04-.28.29-.75.3-1.04.02C1.86,48.18-1.33,37.5.52,27.02,2.44,16.09,9.28,7.27,19.28,2.83,25.12.24,31.28-.06,37.08,0c7.33.08,13.72,1.34,19.51,3.86,9.57,4.15,15.84,11.7,19.17,23.07.41,1.41.19,2.74-.02,4.03l-.09.54c-.36,2.34-.04,4.4,1,6.29,2.09,3.83,4.44,6.78,7.17,9.03,1.42,1.17,2.11,2.4,2.03,3.66-.08,1.26-.91,2.39-2.48,3.37-.15.09-.31.18-.46.27-.12.07-.24.14-.36.21-2.34,1.43-2.22,6.66-2.11,11.72.16,7.21.34,15.39-6.4,16.05-1.43.14-2.83,0-4.19-.12-.68-.06-1.38-.13-2.06-.16-11.07-.47-12.96,11.16-13.26,16.18-.02.39-.35.69-.74.69Z"/>
  <path class="cls-1" d="M29.22,54.06c-2.83-.69-4.14-3.92-3.73-6.51.42-2.61,2.13-4.73,3.76-6.46.27-.29.54-.57.82-.86.87-.9,1.7-1.77,2.41-2.7-2.18.17-4.03-.34-5.29-1.48-.98-.89-1.57-2.22-1.61-3.65-.04-1.44.48-2.8,1.41-3.73.94-.94,2.29-1.46,3.73-1.42,1.44.03,2.77.62,3.66,1.6,1.66,1.83,1.67,4.5.92,6.64.16-.04.32-.08.48-.13,1.21-.32,2.47-.66,3.78-.76,3.23-.25,6.28.94,9.23,2.09,2.91,1.14,5.66,2.21,8.55,2,3.41-.25,6.61-2.53,7.97-5.67,1.36-3.14.83-7.03-1.32-9.69-1.2-1.48-2.88-2.56-4.72-3.1-.02.12-.05.25-.08.37-.56,2.43-1.91,4.21-3.68,4.87-1.18.44-2.65.22-3.73-.57-.9-.65-1.4-1.6-1.36-2.61.08-2.04,2.11-3.36,4.08-3.75,1.15-.23,2.33-.25,3.49-.1.14-4.01-2.15-8.16-5.72-9.98-3.6-1.84-8.35-1.25-11.52,1.26,1.35,1.01,2.66,2.49,2.71,4.46.05,1.9-1.21,3.99-3.34,4.05-2.03.06-3.5-1.84-3.61-3.66-.12-1.9.93-3.55,1.85-4.6-4.8-2.48-13.58-3.23-17.39,1.28-.75.88-1.22,1.96-1.4,3.04.63-.03,1.28-.03,1.94,0,2.21.11,4.69,1.01,5.04,3.21.12.78-.09,1.6-.61,2.29-.57.77-1.46,1.31-2.38,1.43-1.54.21-3.17-.54-4.27-1.95-.74-.95-1.15-2.12-1.25-3.36-1.58.24-3.26.74-4.77,1.72-2.47,1.6-3.94,4.29-3.76,6.84.04.52.16,1.03.34,1.52,1.23-.72,2.62-1.18,4.05-1.31,1.96-.18,4.14.62,4.54,2.49.17.8-.04,1.61-.59,2.3-.75.93-2.05,1.54-3.3,1.55-2.06,0-4-1.14-5.22-2.88-1.27,1.07-2.25,2.48-2.73,4.08-.98,3.27.21,7.04,2.88,9.16,2.67,2.12,6.61,2.42,9.57.73.58-.33,1.12-.73,1.7-1.15.58-.43,1.18-.87,1.84-1.24.98-.56,2.89-1.38,4.73-.61l-.57,1.36c-1.3-.55-2.83.19-3.43.53-.58.33-1.12.73-1.69,1.15-.58.43-1.18.87-1.84,1.24-3.47,1.99-8.09,1.63-11.22-.85-3.13-2.49-4.52-6.9-3.38-10.74.59-1.97,1.82-3.7,3.41-4.96-.31-.71-.5-1.47-.56-2.27-.22-3.08,1.52-6.29,4.42-8.19,1.57-1.02,3.47-1.69,5.6-1.98.17-1.48.77-2.94,1.77-4.13,4.46-5.27,14.35-4.36,19.61-1.42,3.63-3.17,9.17-3.95,13.5-1.73,4.22,2.16,6.81,6.92,6.52,11.6,2.21.6,4.24,1.87,5.68,3.65,2.48,3.08,3.1,7.58,1.53,11.21-1.57,3.63-5.27,6.26-9.22,6.56-3.22.24-6.26-.95-9.2-2.09-2.92-1.14-5.68-2.22-8.58-1.99-1.17.09-2.31.39-3.51.71-.55.15-1.12.3-1.69.43-.91,1.52-2.15,2.8-3.35,4.05-.27.28-.54.56-.8.84-1.47,1.57-3.02,3.46-3.38,5.68-.31,1.96.67,4.37,2.62,4.84l-.35,1.44ZM30.59,28.72c-.99,0-1.92.36-2.55.99-.65.65-1.01,1.62-.98,2.65.03,1.03.43,1.98,1.12,2.6,1.54,1.39,3.95,1.2,5.25.96.03,0,.06-.01.09-.02.03-.06.06-.11.09-.17.88-1.79,1.12-4.31-.31-5.9-.62-.68-1.57-1.09-2.6-1.11-.03,0-.07,0-.1,0ZM10.54,27.29c.95,1.35,2.46,2.27,4,2.25.8,0,1.69-.42,2.16-1,.28-.34.38-.7.3-1.07-.22-1.02-1.69-1.44-2.97-1.33-1.24.11-2.43.51-3.49,1.14ZM56.53,19.81c-.59,0-1.17.06-1.75.17-1.36.27-2.84,1.12-2.89,2.36-.03.69.46,1.14.75,1.35.68.49,1.63.65,2.35.38,1.29-.48,2.32-1.91,2.76-3.82.03-.12.05-.23.07-.35-.43-.06-.86-.09-1.29-.09ZM19.49,15.77c.08.96.39,1.87.96,2.6.76.98,1.9,1.52,2.91,1.39.53-.07,1.05-.39,1.39-.85.28-.37.39-.79.33-1.18-.21-1.34-2.1-1.9-3.65-1.97-.59-.03-1.24-.03-1.94,0ZM39.64,10.74c-.05.06-.1.11-.15.17-.74.85-1.6,2.15-1.51,3.57.07,1.1.97,2.31,2.09,2.27,1.18-.04,1.94-1.34,1.91-2.54-.04-1.54-1.32-2.75-2.34-3.47Z"/>
  <text class="cls-4" transform="translate(99.47 55.43)"><tspan x="0" y="0">Dayanna </tspan></text>
  <text class="cls-2" transform="translate(263.49 74.21)"><tspan x="0" y="0">Psicóloga Clínica</tspan></text>
  <text class="cls-4" transform="translate(280.57 54.49)"><tspan x="0" y="0">Vivanco</tspan></text>
</svg>