<?xml version="1.0" encoding="UTF-8"?>
<svg id="Capa_1" data-name="Capa 1" xmlns="http://www.w3.org/2000/svg" viewBox="0 0 436.12 147.3">
  <defs>
    <style>
      .cls-1 {
        fill: #0b9489;
        font-family: Poppins-Light, Poppins;
        font-size: 15.41px;
        font-weight: 300;
        letter-spacing: .17em;
      }

      .cls-2 {
        fill: #e9747d;
      }

      .cls-3 {
        fill: #1e293b;
        font-family: Poppins-ExtraBold, Poppins;
        font-size: 41.48px;
        font-weight: 700;
        letter-spacing: 0em;
      }

      .cls-4 {
        fill: #55bcb2;
      }
    </style>
  </defs>
  <path class="cls-4" d="M393.76,130.45s-.04,0-.06,0c-.54-.03-.95-.49-.92-1.03.91-15.23,8.03-23.69,19.55-23.21.95.04,1.9.13,2.82.21,1.78.17,3.46.32,5.16.16,7.11-.69,6.9-10.11,6.69-19.22-.17-7.57-.33-14.72,3.72-17.2.18-.11.36-.21.55-.32.18-.1.36-.2.53-.31,1.03-.65,2.28-1.68,2.36-2.93.08-1.25-1.03-2.43-1.97-3.21-3.81-3.13-7.07-7.22-9.95-12.5-1.58-2.9-2.08-6.02-1.54-9.55l.12-.73c.26-1.56.5-3.03.08-4.46-4.23-14.44-12.16-24.01-24.24-29.25-7.41-3.22-15.6-4.83-25.03-4.94-7.44-.08-15.34.29-22.71,3.56-12.61,5.6-21.24,16.73-23.67,30.52-2.33,13.21,1.67,26.67,10.43,35.12.39.37.4.99.03,1.38-.38.39-.99.4-1.38.03-9.23-8.89-13.44-23.02-11-36.86,2.55-14.45,11.59-26.1,24.8-31.97C355.85.32,364-.08,371.66.01c9.69.11,18.13,1.78,25.79,5.1,12.64,5.49,20.93,15.46,25.33,30.49.54,1.86.25,3.62-.03,5.33l-.12.71c-.48,3.09-.05,5.81,1.32,8.32,2.76,5.06,5.86,8.96,9.48,11.93,1.88,1.55,2.78,3.17,2.68,4.84-.11,1.66-1.21,3.16-3.27,4.46-.2.13-.41.24-.61.36-.16.09-.32.18-.48.28-3.09,1.9-2.94,8.81-2.79,15.49.21,9.53.45,20.34-8.46,21.21-1.89.18-3.74.01-5.53-.16-.89-.08-1.82-.17-2.72-.21-14.62-.62-17.13,14.75-17.52,21.38-.03.52-.46.92-.97.92Z"/>
  <path class="cls-2" d="M361.27,71.45c-3.75-.91-5.47-5.18-4.93-8.61.55-3.45,2.82-6.25,4.97-8.54.36-.38.72-.75,1.08-1.13,1.14-1.19,2.25-2.34,3.18-3.57-2.88.22-5.33-.45-6.99-1.95-1.3-1.17-2.07-2.93-2.12-4.83-.05-1.9.63-3.69,1.87-4.93,1.24-1.24,3.03-1.93,4.93-1.88,1.9.05,3.66.82,4.83,2.11,2.19,2.42,2.21,5.95,1.22,8.77.21-.06.42-.11.63-.17,1.6-.43,3.26-.87,4.99-1,4.27-.33,8.3,1.24,12.2,2.76,3.85,1.5,7.48,2.92,11.3,2.64,4.51-.34,8.74-3.35,10.54-7.5,1.79-4.15,1.09-9.3-1.75-12.81-1.58-1.96-3.81-3.38-6.23-4.1-.03.16-.07.33-.1.49-.74,3.22-2.52,5.56-4.87,6.44-1.57.58-3.5.29-4.93-.75-1.19-.86-1.85-2.12-1.79-3.44.11-2.7,2.78-4.43,5.39-4.95,1.52-.3,3.08-.34,4.61-.13.18-5.3-2.84-10.78-7.56-13.2-4.76-2.44-11.04-1.65-15.23,1.67,1.78,1.33,3.52,3.29,3.59,5.89.06,2.51-1.6,5.27-4.41,5.35-2.68.07-4.62-2.43-4.78-4.83-.16-2.51,1.23-4.69,2.44-6.08-6.34-3.28-17.95-4.26-22.98,1.69-.99,1.17-1.61,2.58-1.85,4.02.84-.04,1.69-.04,2.57,0,2.92.14,6.2,1.33,6.66,4.25.16,1.04-.12,2.11-.8,3.03-.76,1.02-1.94,1.73-3.15,1.89-2.04.27-4.2-.71-5.64-2.57-.97-1.25-1.52-2.8-1.65-4.44-2.09.31-4.31.98-6.3,2.27-3.26,2.12-5.21,5.67-4.97,9.04.05.69.21,1.37.45,2.01,1.63-.95,3.46-1.56,5.35-1.73,2.59-.24,5.48.82,6,3.29.22,1.05-.05,2.13-.78,3.04-.99,1.23-2.7,2.04-4.36,2.05-2.72,0-5.28-1.51-6.9-3.8-1.68,1.41-2.97,3.28-3.61,5.4-1.29,4.32.28,9.3,3.81,12.1,3.53,2.8,8.73,3.2,12.65.96.77-.44,1.48-.97,2.24-1.52.77-.56,1.56-1.15,2.43-1.64,1.29-.74,3.82-1.83,6.26-.8l-.76,1.8c-1.72-.72-3.74.25-4.53.7-.77.44-1.48.96-2.24,1.52-.77.57-1.56,1.15-2.43,1.64-4.59,2.62-10.69,2.16-14.83-1.13-4.14-3.29-5.98-9.12-4.46-14.19.78-2.6,2.4-4.89,4.51-6.56-.41-.94-.66-1.95-.74-2.99-.29-4.07,2-8.32,5.85-10.82,2.08-1.35,4.59-2.23,7.4-2.61.23-1.95,1.01-3.89,2.34-5.46,5.89-6.96,18.97-5.77,25.91-1.87,4.8-4.19,12.13-5.22,17.84-2.29,5.57,2.85,8.99,9.14,8.62,15.33,2.92.8,5.61,2.47,7.5,4.82,3.28,4.06,4.1,10.02,2.02,14.81-2.08,4.8-6.97,8.28-12.18,8.67-4.26.32-8.27-1.25-12.16-2.77-3.86-1.51-7.5-2.93-11.34-2.63-1.55.12-3.05.52-4.64.94-.73.19-1.47.39-2.23.56-1.21,2.01-2.84,3.7-4.42,5.35-.36.37-.71.74-1.06,1.11-1.94,2.07-3.99,4.58-4.46,7.51-.41,2.58.88,5.77,3.46,6.4l-.46,1.9ZM363.08,37.96c-1.31,0-2.54.47-3.37,1.31-.86.86-1.33,2.14-1.3,3.5.04,1.36.57,2.62,1.48,3.43,2.03,1.83,5.22,1.58,6.94,1.27.04,0,.08-.01.12-.02.04-.07.08-.15.11-.22,1.16-2.37,1.49-5.7-.41-7.79-.82-.9-2.07-1.44-3.43-1.47-.04,0-.09,0-.13,0ZM336.59,36.07c1.26,1.78,3.26,3,5.28,2.98,1.06,0,2.24-.55,2.85-1.32.37-.45.5-.93.4-1.41-.29-1.34-2.24-1.91-3.92-1.75-1.63.15-3.21.68-4.61,1.5ZM397.37,26.18c-.77,0-1.55.07-2.31.22-1.8.36-3.76,1.49-3.82,3.12-.04.91.6,1.51.99,1.79.9.65,2.15.85,3.11.5,1.7-.63,3.06-2.52,3.65-5.05.04-.15.07-.31.1-.46-.57-.08-1.14-.12-1.71-.12ZM348.42,20.84c.1,1.27.52,2.47,1.27,3.43,1,1.29,2.51,2.01,3.84,1.84.7-.09,1.39-.51,1.84-1.12.37-.49.52-1.04.44-1.56-.28-1.77-2.78-2.51-4.83-2.61-.78-.04-1.64-.04-2.56,0ZM375.04,14.19c-.07.07-.13.15-.2.22-.98,1.12-2.12,2.84-2,4.71.09,1.46,1.28,3.05,2.77,3,1.56-.05,2.56-1.77,2.52-3.35-.05-2.03-1.74-3.63-3.09-4.59Z"/>
  <text class="cls-3" transform="translate(0 103.99)"><tspan x="0" y="0">Dayanna </tspan></text>
  <text class="cls-1" transform="translate(189.49 125.01)"><tspan x="0" y="0">PSICÓLOGA CLÍNICA</tspan></text>
  <text class="cls-3" transform="translate(206.95 102.92)"><tspan x="0" y="0">Vivanco</tspan></text>
</svg>