<?xml version="1.0" encoding="UTF-8"?>
<svg id="Capa_1" data-name="Capa 1" xmlns="http://www.w3.org/2000/svg" viewBox="0 0 454.43 103.13">
  <defs>
    <style>
      .cls-1 {
        fill: #e9747d;
      }

      .cls-2 {
        fill: #00968b;
      }

      .cls-3 {
        fill: #0b9489;
      }

      .cls-4 {
        fill: #1e293b;
      }
    </style>
  </defs>
  <path class="cls-2" d="M56.21,103.13s-.03,0-.05,0c-.43-.03-.75-.39-.72-.82.72-12.04,6.35-18.72,15.45-18.35.75.03,1.5.1,2.23.17,1.41.13,2.74.25,4.08.12,5.62-.55,5.45-7.99,5.29-15.19-.13-5.98-.26-11.64,2.94-13.6.14-.09.29-.17.43-.25.14-.08.28-.16.42-.24.82-.51,1.8-1.33,1.86-2.31.06-.99-.81-1.92-1.56-2.53-3.01-2.48-5.59-5.71-7.87-9.88-1.25-2.29-1.65-4.76-1.22-7.55l.09-.58c.2-1.23.4-2.4.07-3.53-3.35-11.42-9.61-18.98-19.16-23.12-5.86-2.54-12.33-3.82-19.79-3.9-5.88-.07-12.13.23-17.95,2.82C10.8,8.8,3.98,17.59,2.06,28.5c-1.84,10.44,1.32,21.08,8.25,27.76.31.3.32.78.02,1.09-.3.31-.78.32-1.09.02C1.94,50.34-1.39,39.17.54,28.23,2.55,16.81,9.7,7.6,20.15,2.96,26.24.25,32.68-.06,38.74,0c7.66.08,14.33,1.4,20.38,4.03,9.99,4.34,16.55,12.22,20.03,24.11.43,1.47.2,2.86-.02,4.21l-.09.56c-.38,2.44-.04,4.59,1.04,6.57,2.18,4,4.63,7.08,7.49,9.43,1.49,1.22,2.2,2.51,2.12,3.83-.08,1.32-.95,2.5-2.59,3.52-.16.1-.32.19-.48.28-.13.07-.26.14-.38.22-2.44,1.5-2.32,6.96-2.21,12.25.17,7.54.36,16.08-6.69,16.76-1.49.14-2.96,0-4.37-.12-.71-.07-1.44-.13-2.15-.16-11.56-.49-13.54,11.66-13.85,16.9-.02.41-.36.73-.77.73Z"/>
  <path class="cls-1" d="M30.52,56.48c-2.96-.72-4.33-4.09-3.89-6.8.44-2.73,2.23-4.94,3.93-6.75.28-.3.57-.6.85-.89.9-.94,1.78-1.85,2.52-2.82-2.28.18-4.21-.35-5.53-1.54-1.03-.93-1.64-2.32-1.68-3.82-.04-1.5.5-2.92,1.48-3.9.98-.98,2.4-1.52,3.9-1.48,1.5.04,2.89.64,3.82,1.67,1.73,1.91,1.75,4.7.96,6.94.17-.04.33-.09.5-.13,1.27-.34,2.58-.69,3.94-.79,3.38-.26,6.56.98,9.64,2.18,3.04,1.19,5.92,2.31,8.94,2.08,3.56-.27,6.91-2.65,8.33-5.93,1.42-3.28.86-7.35-1.38-10.13-1.25-1.55-3.01-2.67-4.93-3.24-.03.13-.05.26-.08.39-.59,2.54-1.99,4.4-3.85,5.09-1.24.46-2.77.23-3.9-.59-.94-.68-1.46-1.67-1.42-2.72.08-2.14,2.2-3.51,4.26-3.92,1.2-.24,2.43-.27,3.65-.1.15-4.19-2.24-8.52-5.98-10.43-3.77-1.93-8.73-1.31-12.04,1.32,1.41,1.05,2.78,2.6,2.83,4.66.05,1.98-1.27,4.16-3.49,4.23-2.12.06-3.66-1.92-3.78-3.82-.12-1.99.97-3.71,1.93-4.81-5.02-2.59-14.19-3.37-18.17,1.34-.78.92-1.27,2.04-1.46,3.18.66-.03,1.34-.03,2.03,0,2.3.11,4.9,1.05,5.27,3.36.13.82-.09,1.67-.63,2.39-.6.81-1.53,1.36-2.49,1.49-1.61.22-3.32-.56-4.46-2.03-.77-.99-1.2-2.22-1.31-3.51-1.65.25-3.41.77-4.98,1.8-2.58,1.68-4.12,4.48-3.93,7.15.04.55.16,1.08.35,1.59,1.29-.75,2.73-1.23,4.23-1.37,2.05-.19,4.33.65,4.75,2.6.18.83-.04,1.69-.62,2.4-.78.97-2.14,1.61-3.45,1.62-2.15,0-4.18-1.19-5.45-3-1.33,1.11-2.35,2.59-2.85,4.27-1.02,3.42.22,7.35,3.01,9.57,2.79,2.22,6.9,2.53,10,.76.61-.35,1.17-.76,1.77-1.2.61-.45,1.23-.91,1.92-1.3,1.02-.58,3.02-1.44,4.95-.63l-.6,1.42c-1.36-.57-2.96.2-3.58.55-.61.35-1.17.76-1.77,1.2-.61.45-1.24.91-1.92,1.3-3.63,2.07-8.45,1.71-11.73-.89-3.27-2.6-4.73-7.21-3.53-11.22.61-2.06,1.9-3.86,3.57-5.19-.32-.74-.53-1.54-.58-2.37-.23-3.22,1.58-6.57,4.62-8.55,1.64-1.07,3.63-1.77,5.85-2.06.18-1.54.8-3.08,1.85-4.32,4.66-5.5,14.99-4.56,20.49-1.48,3.79-3.31,9.59-4.12,14.1-1.81,4.4,2.25,7.11,7.23,6.81,12.12,2.31.63,4.43,1.95,5.93,3.81,2.6,3.21,3.24,7.92,1.6,11.71-1.64,3.79-5.51,6.55-9.63,6.85-3.37.25-6.54-.99-9.61-2.19-3.05-1.19-5.93-2.32-8.96-2.08-1.22.09-2.41.41-3.67.75-.58.15-1.17.31-1.76.45-.95,1.59-2.24,2.93-3.5,4.23-.28.29-.56.59-.84.88-1.54,1.64-3.16,3.62-3.53,5.94-.33,2.04.69,4.56,2.73,5.06l-.36,1.5ZM31.96,30.01c-1.04,0-2.01.37-2.66,1.03-.68.68-1.05,1.69-1.03,2.77.03,1.08.45,2.07,1.17,2.71,1.6,1.45,4.13,1.25,5.48,1,.03,0,.06-.01.09-.02.03-.06.06-.12.09-.18.92-1.87,1.17-4.5-.33-6.16-.65-.71-1.64-1.14-2.71-1.16-.04,0-.07,0-.11,0ZM11.02,28.52c1,1.41,2.57,2.37,4.17,2.35.84,0,1.77-.43,2.26-1.04.29-.36.39-.73.31-1.11-.23-1.06-1.77-1.51-3.1-1.39-1.29.12-2.54.54-3.64,1.19ZM59.06,20.7c-.61,0-1.22.06-1.82.18-1.42.28-2.97,1.17-3.02,2.46-.03.72.48,1.19.78,1.41.71.52,1.7.68,2.46.39,1.34-.5,2.42-1.99,2.88-3.99.03-.12.05-.24.08-.37-.45-.06-.9-.09-1.35-.09ZM20.36,16.47c.08,1,.41,1.95,1,2.72.79,1.02,1.99,1.59,3.04,1.45.56-.07,1.1-.41,1.46-.88.29-.39.41-.82.35-1.23-.22-1.4-2.19-1.98-3.82-2.06-.61-.03-1.3-.03-2.03,0ZM41.41,11.22c-.05.06-.11.12-.16.18-.77.88-1.67,2.25-1.58,3.73.07,1.15,1.01,2.41,2.19,2.37,1.23-.04,2.03-1.4,1.99-2.65-.04-1.61-1.38-2.87-2.45-3.63Z"/>
  <g>
    <path class="cls-4" d="M124.01,32.86c2.11,1.13,3.74,2.7,4.87,4.72,1.14,2.02,1.71,4.34,1.71,6.94s-.58,4.88-1.73,6.9c-1.15,2.02-2.78,3.61-4.89,4.76-2.11,1.15-4.56,1.73-7.34,1.73h-10.58v-26.74h10.58c2.81,0,5.27.56,7.38,1.69ZM121.18,49.57c1.24-1.19,1.86-2.87,1.86-5.04s-.62-3.9-1.86-5.1c-1.24-1.2-2.95-1.8-5.12-1.8h-2.58v13.73h2.58c2.17,0,3.88-.59,5.12-1.78Z"/>
    <path class="cls-4" d="M133.68,41.49c.8-1.64,1.88-2.91,3.26-3.79,1.38-.88,2.91-1.33,4.61-1.33,1.47,0,2.73.29,3.79.87,1.06.58,1.88,1.37,2.47,2.35v-2.96h7.43v21.28h-7.43v-2.96c-.58.99-1.41,1.77-2.48,2.35-1.07.58-2.33.87-3.77.87-1.69,0-3.23-.44-4.61-1.33-1.38-.88-2.47-2.16-3.26-3.81s-1.19-3.58-1.19-5.78.4-4.12,1.19-5.76ZM146.69,44.03c-.75-.78-1.66-1.18-2.75-1.18s-2.04.39-2.77,1.16c-.73.77-1.1,1.85-1.1,3.24s.37,2.45,1.1,3.24c.73.8,1.66,1.19,2.77,1.19s2-.39,2.75-1.18c.75-.78,1.12-1.87,1.12-3.26s-.37-2.44-1.12-3.22Z"/>
    <path class="cls-4" d="M182.17,36.63l-13.5,31.4h-8.08l5.08-11.04-8.72-20.37h8.27l4.48,12.06,4.32-12.06h8.15Z"/>
    <path class="cls-4" d="M183.85,41.49c.8-1.64,1.88-2.91,3.26-3.79,1.38-.88,2.91-1.33,4.61-1.33,1.47,0,2.73.29,3.79.87,1.06.58,1.88,1.37,2.47,2.35v-2.96h7.43v21.28h-7.43v-2.96c-.58.99-1.41,1.77-2.48,2.35-1.07.58-2.33.87-3.77.87-1.69,0-3.23-.44-4.61-1.33-1.38-.88-2.47-2.16-3.26-3.81s-1.19-3.58-1.19-5.78.4-4.12,1.19-5.76ZM196.86,44.03c-.75-.78-1.66-1.18-2.75-1.18s-2.04.39-2.77,1.16c-.73.77-1.1,1.85-1.1,3.24s.37,2.45,1.1,3.24c.73.8,1.66,1.19,2.77,1.19s2-.39,2.75-1.18c.75-.78,1.12-1.87,1.12-3.26s-.37-2.44-1.12-3.22Z"/>
    <path class="cls-4" d="M229.19,38.89c1.44,1.63,2.16,3.84,2.16,6.62v12.4h-7.43v-11.42c0-1.21-.32-2.17-.95-2.86-.63-.69-1.48-1.04-2.54-1.04s-1.99.35-2.62,1.04c-.63.7-.95,1.65-.95,2.86v11.42h-7.43v-21.28h7.43v3.03c.66-.96,1.54-1.74,2.66-2.33,1.11-.59,2.39-.89,3.83-.89,2.45,0,4.4.82,5.84,2.45Z"/>
    <path class="cls-4" d="M254.98,38.89c1.44,1.63,2.16,3.84,2.16,6.62v12.4h-7.43v-11.42c0-1.21-.32-2.17-.95-2.86-.63-.69-1.48-1.04-2.54-1.04s-1.99.35-2.62,1.04c-.63.7-.95,1.65-.95,2.86v11.42h-7.43v-21.28h7.43v3.03c.66-.96,1.54-1.74,2.66-2.33,1.11-.59,2.39-.89,3.83-.89,2.45,0,4.4.82,5.84,2.45Z"/>
    <path class="cls-4" d="M260.99,41.49c.8-1.64,1.88-2.91,3.26-3.79,1.38-.88,2.91-1.33,4.61-1.33,1.47,0,2.73.29,3.79.87,1.06.58,1.88,1.37,2.47,2.35v-2.96h7.43v21.28h-7.43v-2.96c-.58.99-1.41,1.77-2.48,2.35-1.08.58-2.33.87-3.77.87-1.69,0-3.23-.44-4.61-1.33s-2.46-2.16-3.26-3.81c-.8-1.66-1.19-3.58-1.19-5.78s.4-4.12,1.19-5.76ZM274,44.03c-.75-.78-1.66-1.18-2.75-1.18s-2.04.39-2.77,1.16c-.73.77-1.1,1.85-1.1,3.24s.37,2.45,1.1,3.24c.73.8,1.66,1.19,2.77,1.19s2-.39,2.75-1.18c.75-.78,1.12-1.87,1.12-3.26s-.37-2.44-1.12-3.22Z"/>
  </g>
  <g>
    <path class="cls-3" d="M282.72,71.92c-.62.58-1.56.87-2.81.87h-2.24v4.74h-1.11v-11.11h3.35c1.24,0,2.17.29,2.8.87.63.58.95,1.36.95,2.32s-.31,1.72-.94,2.3ZM282.52,69.62c0-.74-.21-1.3-.62-1.68-.41-.38-1.08-.57-1.99-.57h-2.24v4.48h2.24c1.74,0,2.61-.74,2.61-2.23Z"/>
    <path class="cls-3" d="M288.74,76.97c-.63-.46-.98-1.09-1.06-1.88h1.14c.05.49.28.88.69,1.18s.96.45,1.64.45c.6,0,1.08-.14,1.42-.43.34-.29.52-.64.52-1.06,0-.3-.1-.54-.29-.73-.19-.19-.43-.34-.72-.45-.29-.11-.69-.23-1.18-.36-.65-.17-1.17-.34-1.57-.51-.4-.17-.74-.42-1.03-.75-.28-.33-.42-.78-.42-1.34,0-.42.13-.82.38-1.18.25-.36.61-.65,1.08-.86.47-.21,1-.32,1.59-.32.93,0,1.68.24,2.26.71.57.47.88,1.12.92,1.95h-1.11c-.03-.51-.23-.92-.6-1.23-.37-.31-.87-.47-1.5-.47-.56,0-1.02.13-1.37.4-.35.26-.53.59-.53.99,0,.34.1.62.31.83.21.22.46.39.77.51.31.12.72.26,1.24.41.63.17,1.12.33,1.49.49s.69.39.95.7c.26.31.4.71.41,1.22,0,.47-.13.88-.38,1.25-.25.37-.61.65-1.06.87-.46.21-.98.32-1.57.32-1,0-1.81-.23-2.44-.69Z"/>
    <path class="cls-3" d="M298.95,66.98c-.16-.16-.24-.36-.24-.59s.08-.43.24-.58c.16-.15.35-.23.57-.23s.41.08.57.23c.16.15.24.35.24.58s-.08.43-.24.59c-.16.16-.35.24-.57.24s-.41-.08-.57-.24ZM300.08,68.85v8.68h-1.11v-8.68h1.11Z"/>
    <path class="cls-3" d="M305.31,70.83c.36-.67.86-1.19,1.49-1.56.64-.37,1.36-.55,2.18-.55,1.07,0,1.95.26,2.65.79.69.53,1.14,1.25,1.34,2.16h-1.19c-.15-.62-.47-1.12-.96-1.47-.49-.35-1.1-.53-1.83-.53-.58,0-1.11.13-1.57.4-.47.26-.83.66-1.1,1.18-.27.52-.41,1.17-.41,1.93s.14,1.41.41,1.94c.27.53.64.93,1.1,1.19.47.26.99.4,1.57.4.73,0,1.34-.18,1.83-.53.49-.36.81-.85.96-1.49h1.19c-.2.89-.65,1.61-1.35,2.15s-1.58.81-2.64.81c-.82,0-1.54-.18-2.18-.55-.64-.37-1.13-.88-1.49-1.56s-.54-1.46-.54-2.36.18-1.69.54-2.36Z"/>
    <path class="cls-3" d="M319.29,77.11c-.65-.37-1.17-.88-1.54-1.56s-.56-1.46-.56-2.36.19-1.69.57-2.36c.38-.67.9-1.19,1.56-1.56.66-.37,1.39-.55,2.21-.55s1.55.18,2.22.55c.66.37,1.18.88,1.56,1.56s.56,1.46.56,2.36-.19,1.67-.57,2.35c-.38.68-.91,1.2-1.57,1.57-.67.37-1.41.55-2.22.55s-1.55-.18-2.2-.55ZM323.08,76.3c.49-.26.88-.65,1.18-1.18.3-.52.45-1.17.45-1.93s-.15-1.41-.44-1.93c-.3-.52-.69-.92-1.18-1.18-.49-.26-1.02-.39-1.59-.39s-1.1.13-1.59.39c-.49.26-.88.65-1.17,1.18-.29.52-.44,1.17-.44,1.93s.15,1.41.44,1.93c.29.52.68.92,1.16,1.18.48.26,1.01.39,1.58.39s1.1-.13,1.59-.39ZM323.01,66.21l-3.26,1.89v-.86l3.26-2.03v1Z"/>
    <path class="cls-3" d="M331.67,65.77v11.76h-1.11v-11.76h1.11Z"/>
    <path class="cls-3" d="M338.47,77.11c-.65-.37-1.17-.88-1.54-1.56-.38-.67-.56-1.46-.56-2.36s.19-1.69.57-2.36c.38-.67.9-1.19,1.56-1.56.66-.37,1.39-.55,2.21-.55s1.55.18,2.22.55c.66.37,1.18.88,1.56,1.56s.56,1.46.56,2.36-.19,1.67-.57,2.35c-.38.68-.91,1.2-1.57,1.57-.67.37-1.41.55-2.23.55s-1.55-.18-2.2-.55ZM342.26,76.3c.49-.26.88-.65,1.18-1.18s.45-1.17.45-1.93-.15-1.41-.45-1.93-.69-.92-1.18-1.18c-.49-.26-1.02-.39-1.59-.39s-1.1.13-1.59.39c-.49.26-.88.65-1.17,1.18-.29.52-.44,1.17-.44,1.93s.15,1.41.44,1.93c.29.52.68.92,1.16,1.18.48.26,1.01.39,1.58.39s1.1-.13,1.59-.39Z"/>
    <path class="cls-3" d="M355.51,69.3c.6.38,1.04.86,1.3,1.45v-1.89h1.11v8.9c0,.79-.17,1.5-.52,2.11-.34.61-.82,1.09-1.44,1.42-.61.33-1.31.5-2.1.5-1.11,0-2.04-.26-2.77-.79-.74-.53-1.19-1.25-1.38-2.16h1.1c.19.6.55,1.09,1.09,1.45s1.19.54,1.96.54c.56,0,1.06-.12,1.51-.36s.79-.59,1.05-1.06c.25-.47.38-1.02.38-1.65v-2.15c-.28.59-.71,1.08-1.31,1.47s-1.31.58-2.12.58-1.51-.19-2.14-.56c-.63-.37-1.12-.89-1.48-1.57-.36-.68-.53-1.46-.53-2.35s.18-1.67.53-2.34c.35-.67.85-1.19,1.48-1.56.63-.37,1.34-.55,2.14-.55s1.53.19,2.13.57ZM356.39,71.35c-.29-.53-.67-.94-1.17-1.22-.49-.29-1.04-.43-1.63-.43s-1.17.14-1.65.41c-.49.28-.87.67-1.15,1.2-.28.52-.42,1.15-.42,1.87s.14,1.33.42,1.87c.28.54.66.94,1.15,1.22.49.28,1.04.42,1.65.42s1.14-.14,1.63-.43c.49-.29.88-.69,1.17-1.22.29-.53.43-1.14.43-1.84s-.14-1.31-.43-1.84Z"/>
    <path class="cls-3" d="M363.16,70.83c.35-.67.85-1.19,1.48-1.56.63-.37,1.34-.55,2.14-.55s1.54.19,2.14.57c.6.38,1.03.87,1.3,1.46v-1.91h1.11v8.68h-1.11v-1.92c-.28.59-.71,1.08-1.31,1.47s-1.31.58-2.14.58-1.49-.19-2.12-.56c-.63-.37-1.12-.89-1.48-1.57-.36-.68-.53-1.46-.53-2.35s.18-1.67.53-2.34ZM369.78,71.35c-.29-.53-.67-.94-1.17-1.22-.49-.29-1.04-.43-1.63-.43s-1.17.14-1.65.41c-.49.28-.87.67-1.15,1.2-.28.52-.42,1.15-.42,1.87s.14,1.33.42,1.87c.28.54.66.94,1.15,1.22.49.28,1.04.42,1.65.42s1.14-.14,1.63-.43c.49-.29.88-.69,1.17-1.22.29-.53.43-1.14.43-1.84s-.14-1.31-.43-1.84Z"/>
    <path class="cls-3" d="M383.77,69.04c.48-.86,1.13-1.54,1.96-2.02.83-.48,1.75-.72,2.77-.72,1.24,0,2.3.29,3.19.88.88.59,1.53,1.42,1.93,2.49h-1.3c-.32-.75-.8-1.34-1.46-1.76-.65-.42-1.44-.64-2.36-.64-.82,0-1.55.19-2.2.57-.65.38-1.16.93-1.53,1.65s-.56,1.54-.56,2.49.18,1.77.56,2.48.88,1.25,1.53,1.64c.65.38,1.38.57,2.2.57.92,0,1.71-.21,2.36-.63.65-.42,1.14-1,1.46-1.74h1.3c-.4,1.06-1.05,1.88-1.94,2.46-.89.58-1.95.87-3.18.87-1.02,0-1.94-.24-2.77-.72s-1.48-1.15-1.96-2.01-.71-1.83-.71-2.92.24-2.07.71-2.93Z"/>
    <path class="cls-3" d="M399.6,65.77v11.76h-1.11v-11.76h1.11Z"/>
    <path class="cls-3" d="M406.81,66.29l-3.26,1.89v-.86l3.26-2.03v1ZM405.91,68.85v8.68h-1.11v-8.68h1.11Z"/>
    <path class="cls-3" d="M417.72,69.66c.66.64.99,1.57.99,2.79v5.09h-1.1v-4.96c0-.94-.24-1.66-.71-2.16-.47-.5-1.12-.75-1.93-.75s-1.5.26-2,.79c-.5.53-.75,1.31-.75,2.34v4.74h-1.11v-8.68h1.11v1.48c.28-.53.67-.94,1.19-1.22.52-.28,1.11-.42,1.76-.42,1.04,0,1.89.32,2.54.96Z"/>
    <path class="cls-3" d="M423.82,66.98c-.16-.16-.24-.36-.24-.59s.08-.43.24-.58c.16-.15.35-.23.57-.23s.41.08.57.23c.16.15.24.35.24.58s-.08.43-.24.59c-.16.16-.35.24-.57.24s-.41-.08-.57-.24ZM424.95,68.85v8.68h-1.11v-8.68h1.11Z"/>
    <path class="cls-3" d="M430.18,70.83c.36-.67.86-1.19,1.49-1.56.64-.37,1.36-.55,2.18-.55,1.07,0,1.95.26,2.65.79.69.53,1.14,1.25,1.34,2.16h-1.19c-.15-.62-.47-1.12-.96-1.47-.49-.35-1.1-.53-1.83-.53-.58,0-1.11.13-1.57.4-.47.26-.83.66-1.1,1.18-.27.52-.41,1.17-.41,1.93s.14,1.41.41,1.94c.27.53.64.93,1.1,1.19.47.26.99.4,1.57.4.73,0,1.34-.18,1.83-.53.49-.36.81-.85.96-1.49h1.19c-.2.89-.65,1.61-1.35,2.15s-1.58.81-2.64.81c-.82,0-1.54-.18-2.18-.55-.64-.37-1.13-.88-1.49-1.56s-.54-1.46-.54-2.36.18-1.69.54-2.36Z"/>
    <path class="cls-3" d="M442.58,70.83c.35-.67.85-1.19,1.48-1.56.63-.37,1.34-.55,2.14-.55s1.54.19,2.14.57c.6.38,1.03.87,1.3,1.46v-1.91h1.11v8.68h-1.11v-1.92c-.28.59-.71,1.08-1.31,1.47s-1.31.58-2.14.58-1.49-.19-2.12-.56c-.63-.37-1.12-.89-1.48-1.57-.36-.68-.53-1.46-.53-2.35s.18-1.67.53-2.34ZM449.2,71.35c-.29-.53-.67-.94-1.17-1.22-.49-.29-1.04-.43-1.63-.43s-1.17.14-1.65.41c-.49.28-.87.67-1.15,1.2-.28.52-.42,1.15-.42,1.87s.14,1.33.42,1.87c.28.54.66.94,1.15,1.22.49.28,1.04.42,1.65.42s1.14-.14,1.63-.43c.49-.29.88-.69,1.17-1.22.29-.53.43-1.14.43-1.84s-.14-1.31-.43-1.84Z"/>
  </g>
  <g>
    <path class="cls-4" d="M321.27,30.19l-9.22,26.74h-9.52l-9.25-26.74h7.96l6.07,19.3,6.03-19.3h7.93Z"/>
    <path class="cls-4" d="M323.94,32.6c-.8-.72-1.2-1.62-1.2-2.71s.4-2.03,1.2-2.77c.8-.73,1.85-1.1,3.17-1.1s2.33.37,3.13,1.1c.8.73,1.2,1.66,1.2,2.77s-.4,1.99-1.2,2.71c-.8.72-1.84,1.08-3.13,1.08s-2.37-.36-3.17-1.08ZM330.79,35.65v21.28h-7.43v-21.28h7.43Z"/>
    <path class="cls-4" d="M345.01,49.91l3.98-14.26h7.93l-7.32,21.28h-9.25l-7.32-21.28h7.93l4.06,14.26Z"/>
    <path class="cls-4" d="M359.17,40.51c.8-1.64,1.88-2.91,3.26-3.79,1.38-.88,2.91-1.33,4.61-1.33,1.47,0,2.73.29,3.79.87,1.06.58,1.88,1.37,2.46,2.35v-2.96h7.43v21.28h-7.43v-2.96c-.58.99-1.41,1.77-2.48,2.35-1.07.58-2.33.87-3.77.87-1.69,0-3.23-.44-4.61-1.33-1.38-.88-2.47-2.16-3.26-3.81-.8-1.66-1.2-3.58-1.2-5.78s.4-4.12,1.2-5.76ZM372.18,43.05c-.75-.78-1.66-1.18-2.75-1.18s-2.04.39-2.77,1.16c-.73.77-1.1,1.85-1.1,3.24s.37,2.45,1.1,3.24c.73.8,1.66,1.19,2.77,1.19s2-.39,2.75-1.18c.75-.78,1.12-1.87,1.12-3.26s-.37-2.44-1.12-3.22Z"/>
    <path class="cls-4" d="M404.51,37.91c1.44,1.63,2.16,3.84,2.16,6.62v12.4h-7.43v-11.42c0-1.21-.32-2.17-.95-2.86-.63-.69-1.48-1.04-2.54-1.04s-1.99.35-2.62,1.04c-.63.7-.95,1.65-.95,2.86v11.42h-7.43v-21.28h7.43v3.03c.66-.96,1.54-1.74,2.66-2.33,1.11-.59,2.39-.89,3.83-.89,2.45,0,4.4.82,5.84,2.45Z"/>
    <path class="cls-4" d="M410.7,40.51c.91-1.64,2.18-2.91,3.81-3.79,1.63-.88,3.5-1.33,5.59-1.33,2.71,0,4.98.74,6.83,2.22s3.03,3.55,3.57,6.2h-7.89c-.46-1.39-1.34-2.09-2.66-2.09-.94,0-1.67.39-2.22,1.16-.54.77-.82,1.9-.82,3.39s.27,2.63.82,3.41c.54.78,1.28,1.18,2.22,1.18,1.34,0,2.22-.69,2.66-2.09h7.89c-.53,2.63-1.72,4.69-3.57,6.18-1.85,1.49-4.12,2.24-6.83,2.24-2.1,0-3.96-.44-5.59-1.33-1.63-.88-2.9-2.15-3.81-3.79-.91-1.64-1.37-3.58-1.37-5.8s.46-4.12,1.37-5.76Z"/>
    <path class="cls-4" d="M437.53,55.87c-1.68-.88-3-2.15-3.96-3.79-.96-1.64-1.44-3.58-1.44-5.8s.49-4.12,1.46-5.76c.97-1.64,2.3-2.91,3.98-3.79,1.68-.88,3.58-1.33,5.71-1.33s4.03.44,5.71,1.33c1.68.89,3.01,2.15,3.98,3.79s1.46,3.56,1.46,5.76-.49,4.13-1.46,5.78c-.97,1.66-2.31,2.93-4,3.81-1.69.89-3.6,1.33-5.73,1.33s-4.03-.44-5.71-1.33ZM445.83,49.59c.7-.77,1.04-1.88,1.04-3.32s-.35-2.54-1.04-3.3c-.7-.76-1.55-1.14-2.56-1.14s-1.86.38-2.54,1.14c-.68.76-1.02,1.86-1.02,3.3s.33,2.58.99,3.34c.66.76,1.5,1.14,2.54,1.14s1.9-.38,2.6-1.16Z"/>
  </g>
</svg>