<?xml version="1.0" encoding="UTF-8"?>
<svg id="Capa_1" data-name="Capa 1" xmlns="http://www.w3.org/2000/svg" viewBox="0 0 421.67 95.7">
  <defs>
    <style>
      .cls-1 {
        fill: #e9747d;
      }

      .cls-2 {
        fill: #00968b;
      }

      .cls-3 {
        fill: #55bcb2;
      }
    </style>
  </defs>
  <path class="cls-2" d="M52.16,95.7s-.03,0-.04,0c-.39-.02-.7-.36-.67-.76.67-11.17,5.89-17.37,14.34-17.03.7.03,1.39.09,2.07.16,1.31.12,2.54.24,3.79.11,5.21-.51,5.06-7.42,4.91-14.1-.12-5.55-.24-10.8,2.73-12.62.13-.08.27-.16.4-.23.13-.07.26-.15.39-.23.76-.47,1.67-1.23,1.73-2.15.06-.92-.75-1.78-1.44-2.35-2.8-2.3-5.18-5.3-7.3-9.17-1.16-2.12-1.53-4.42-1.13-7.01l.09-.54c.19-1.14.37-2.22.06-3.27-3.1-10.59-8.92-17.61-17.78-21.46-5.44-2.36-11.44-3.55-18.36-3.62-5.46-.06-11.25.21-16.66,2.61C10.02,8.16,3.69,16.32,1.91,26.44c-1.71,9.69,1.22,19.56,7.65,25.76.28.27.29.73.02,1.01-.28.28-.73.29-1.01.02C1.8,46.71-1.29,36.35.5,26.19,2.37,15.6,9,7.05,18.7,2.74,24.35.23,30.33-.06,35.95,0c7.11.08,13.3,1.3,18.91,3.74,9.27,4.03,15.35,11.34,18.58,22.37.4,1.36.19,2.66-.02,3.91l-.08.52c-.35,2.27-.03,4.26.97,6.1,2.03,3.71,4.3,6.57,6.95,8.75,1.38,1.13,2.04,2.33,1.96,3.55-.08,1.22-.89,2.32-2.4,3.27-.15.09-.3.18-.45.26-.12.07-.24.13-.35.2-2.27,1.39-2.16,6.46-2.05,11.36.16,6.99.33,14.92-6.2,15.56-1.39.13-2.74,0-4.06-.11-.66-.06-1.33-.12-1.99-.15-10.73-.45-12.56,10.82-12.85,15.68-.02.38-.34.67-.71.67Z"/>
  <path class="cls-1" d="M28.32,52.41c-2.75-.67-4.02-3.8-3.61-6.31.4-2.53,2.07-4.59,3.64-6.26.26-.28.53-.55.79-.83.84-.87,1.65-1.72,2.34-2.62-2.11.16-3.91-.33-5.13-1.43-.95-.86-1.52-2.15-1.56-3.54-.04-1.39.46-2.71,1.37-3.62.91-.91,2.22-1.41,3.62-1.38,1.39.03,2.68.6,3.55,1.55,1.61,1.78,1.62,4.36.89,6.44.16-.04.31-.08.46-.12,1.18-.31,2.39-.64,3.66-.74,3.13-.24,6.09.91,8.95,2.03,2.82,1.1,5.49,2.14,8.29,1.93,3.31-.25,6.41-2.46,7.73-5.5,1.32-3.04.8-6.82-1.28-9.4-1.16-1.44-2.79-2.48-4.57-3.01-.02.12-.05.24-.08.36-.55,2.36-1.85,4.08-3.57,4.72-1.15.43-2.57.21-3.62-.55-.87-.63-1.35-1.55-1.32-2.53.08-1.98,2.04-3.25,3.96-3.63,1.11-.22,2.26-.25,3.38-.09.14-3.89-2.08-7.91-5.55-9.68-3.49-1.79-8.1-1.21-11.17,1.22,1.31.98,2.58,2.41,2.63,4.32.05,1.84-1.18,3.86-3.24,3.93-1.97.05-3.39-1.78-3.5-3.54-.12-1.84.9-3.44,1.79-4.46-4.65-2.41-13.16-3.13-16.86,1.24-.73.86-1.18,1.9-1.36,2.95.61-.03,1.24-.03,1.89,0,2.14.1,4.55.97,4.89,3.12.12.76-.09,1.55-.59,2.22-.56.75-1.42,1.27-2.31,1.39-1.49.2-3.08-.52-4.14-1.89-.71-.92-1.11-2.06-1.21-3.25-1.53.23-3.16.72-4.62,1.67-2.39,1.56-3.82,4.16-3.64,6.63.04.51.15,1,.33,1.47,1.2-.69,2.54-1.14,3.92-1.27,1.9-.17,4.02.6,4.4,2.41.16.77-.04,1.56-.57,2.23-.73.9-1.98,1.49-3.2,1.5-1.99,0-3.87-1.11-5.06-2.79-1.23,1.03-2.18,2.41-2.65,3.96-.95,3.17.2,6.82,2.79,8.88,2.59,2.06,6.41,2.35,9.28.71.56-.32,1.09-.71,1.64-1.12.56-.41,1.15-.84,1.78-1.21.95-.54,2.81-1.34,4.59-.59l-.56,1.32c-1.26-.53-2.74.18-3.32.51-.56.32-1.09.71-1.64,1.12-.56.41-1.15.84-1.78,1.21-3.37,1.93-7.84,1.58-10.88-.83-3.04-2.41-4.38-6.69-3.27-10.41.57-1.91,1.76-3.58,3.31-4.81-.3-.69-.49-1.43-.54-2.2-.21-2.99,1.47-6.1,4.29-7.94,1.53-.99,3.37-1.64,5.43-1.92.17-1.43.74-2.85,1.72-4.01,4.32-5.11,13.91-4.23,19.01-1.37,3.52-3.07,8.89-3.83,13.09-1.68,4.09,2.09,6.6,6.71,6.32,11.24,2.14.59,4.11,1.81,5.5,3.54,2.41,2.98,3,7.35,1.48,10.87-1.52,3.52-5.11,6.07-8.94,6.36-3.13.23-6.07-.92-8.92-2.03-2.83-1.11-5.5-2.15-8.31-1.93-1.13.09-2.24.38-3.4.69-.53.14-1.08.29-1.64.41-.89,1.47-2.08,2.72-3.24,3.92-.26.27-.52.54-.78.82-1.43,1.52-2.93,3.36-3.27,5.51-.3,1.9.64,4.24,2.54,4.7l-.34,1.39ZM29.65,27.84c-.96,0-1.86.35-2.47.96-.63.63-.98,1.57-.95,2.57.03,1,.42,1.92,1.08,2.52,1.49,1.34,3.83,1.16,5.09.93.03,0,.06-.01.09-.02.03-.05.06-.11.08-.16.85-1.74,1.09-4.18-.3-5.72-.6-.66-1.52-1.06-2.52-1.08-.03,0-.07,0-.1,0ZM10.22,26.46c.93,1.31,2.39,2.2,3.87,2.19.78,0,1.64-.4,2.09-.97.27-.33.37-.68.29-1.03-.21-.99-1.64-1.4-2.88-1.29-1.2.11-2.35.5-3.38,1.1ZM54.81,19.21c-.57,0-1.14.05-1.69.16-1.32.26-2.76,1.09-2.8,2.29-.03.66.44,1.11.73,1.31.66.48,1.58.63,2.28.37,1.25-.46,2.25-1.85,2.68-3.7.03-.11.05-.23.07-.34-.42-.06-.83-.09-1.25-.09ZM18.9,15.29c.07.93.38,1.81.93,2.52.74.95,1.84,1.48,2.82,1.35.52-.07,1.02-.38,1.35-.82.27-.36.38-.77.32-1.14-.21-1.3-2.04-1.84-3.54-1.91-.57-.03-1.21-.03-1.88,0ZM38.43,10.41c-.05.05-.1.11-.15.16-.72.82-1.55,2.08-1.47,3.46.07,1.07.94,2.24,2.03,2.2,1.14-.04,1.88-1.3,1.85-2.46-.04-1.49-1.28-2.66-2.27-3.36Z"/>
  <g>
    <path class="cls-3" d="M115.07,30.49c1.96,1.04,3.47,2.5,4.52,4.38,1.06,1.88,1.58,4.02,1.58,6.44s-.53,4.53-1.6,6.41c-1.07,1.88-2.58,3.35-4.54,4.42-1.96,1.07-4.23,1.6-6.81,1.6h-9.82v-24.81h9.82c2.6,0,4.89.52,6.84,1.57ZM112.45,45.99c1.15-1.1,1.72-2.66,1.72-4.68s-.58-3.62-1.72-4.73c-1.15-1.11-2.73-1.67-4.75-1.67h-2.39v12.74h2.39c2.02,0,3.6-.55,4.75-1.65Z"/>
    <path class="cls-3" d="M124.04,38.5c.74-1.52,1.75-2.7,3.03-3.52s2.7-1.23,4.28-1.23c1.36,0,2.53.27,3.52.81.99.54,1.75,1.27,2.29,2.18v-2.74h6.9v19.74h-6.9v-2.75c-.54.92-1.31,1.64-2.31,2.18-1,.54-2.16.81-3.5.81-1.57,0-3-.41-4.28-1.23s-2.29-2-3.03-3.54c-.74-1.54-1.11-3.33-1.11-5.37s.37-3.82,1.11-5.35ZM136.11,40.85c-.69-.73-1.54-1.09-2.55-1.09s-1.89.36-2.57,1.07c-.68.72-1.02,1.72-1.02,3.01s.34,2.27,1.02,3.01c.68.74,1.54,1.11,2.57,1.11s1.86-.36,2.55-1.09c.69-.73,1.04-1.74,1.04-3.03s-.35-2.26-1.04-2.99Z"/>
    <path class="cls-3" d="M169.04,33.99l-12.53,29.14h-7.5l4.72-10.24-8.09-18.9h7.67l4.15,11.19,4.01-11.19h7.57Z"/>
    <path class="cls-3" d="M170.6,38.5c.74-1.52,1.75-2.7,3.03-3.52s2.7-1.23,4.28-1.23c1.36,0,2.53.27,3.52.81.99.54,1.75,1.27,2.29,2.18v-2.74h6.9v19.74h-6.9v-2.75c-.54.92-1.31,1.64-2.31,2.18-1,.54-2.16.81-3.5.81-1.57,0-3-.41-4.28-1.23s-2.29-2-3.03-3.54c-.74-1.54-1.11-3.33-1.11-5.37s.37-3.82,1.11-5.35ZM182.67,40.85c-.69-.73-1.54-1.09-2.55-1.09s-1.89.36-2.57,1.07c-.68.72-1.02,1.72-1.02,3.01s.34,2.27,1.02,3.01c.68.74,1.54,1.11,2.57,1.11s1.86-.36,2.55-1.09c.69-.73,1.04-1.74,1.04-3.03s-.35-2.26-1.04-2.99Z"/>
    <path class="cls-3" d="M212.67,36.09c1.34,1.51,2.01,3.56,2.01,6.14v11.51h-6.9v-10.59c0-1.13-.29-2.01-.88-2.66-.59-.65-1.37-.97-2.36-.97s-1.84.32-2.43.97c-.59.65-.88,1.53-.88,2.66v10.59h-6.9v-19.74h6.9v2.82c.61-.89,1.43-1.61,2.46-2.16,1.03-.55,2.22-.83,3.55-.83,2.28,0,4.08.76,5.42,2.27Z"/>
    <path class="cls-3" d="M236.6,36.09c1.34,1.51,2.01,3.56,2.01,6.14v11.51h-6.9v-10.59c0-1.13-.29-2.01-.88-2.66-.59-.65-1.37-.97-2.36-.97s-1.84.32-2.43.97c-.59.65-.88,1.53-.88,2.66v10.59h-6.9v-19.74h6.9v2.82c.61-.89,1.43-1.61,2.46-2.16,1.03-.55,2.22-.83,3.55-.83,2.28,0,4.08.76,5.42,2.27Z"/>
    <path class="cls-3" d="M242.18,38.5c.74-1.52,1.75-2.7,3.03-3.52,1.28-.82,2.7-1.23,4.28-1.23,1.36,0,2.53.27,3.52.81.99.54,1.75,1.27,2.29,2.18v-2.74h6.9v19.74h-6.9v-2.75c-.54.92-1.31,1.64-2.31,2.18-1,.54-2.16.81-3.5.81-1.57,0-3-.41-4.28-1.23-1.28-.82-2.29-2-3.03-3.54-.74-1.54-1.11-3.33-1.11-5.37s.37-3.82,1.11-5.35ZM254.25,40.85c-.69-.73-1.54-1.09-2.55-1.09s-1.89.36-2.57,1.07c-.68.72-1.02,1.72-1.02,3.01s.34,2.27,1.02,3.01,1.54,1.11,2.57,1.11,1.86-.36,2.55-1.09c.69-.73,1.04-1.74,1.04-3.03s-.35-2.26-1.04-2.99Z"/>
  </g>
  <g>
    <path class="cls-1" d="M260.74,66.57c-.28.5-.7.9-1.27,1.2-.57.31-1.28.46-2.12.46h-1.56v3.72h-2.52v-10.35h4.08c.83,0,1.52.14,2.09.43.57.29,1,.68,1.28,1.18s.43,1.08.43,1.73c0,.6-.14,1.15-.41,1.64ZM258.23,65.88c.24-.23.35-.54.35-.96s-.12-.73-.35-.96c-.24-.23-.59-.34-1.08-.34h-1.37v2.6h1.37c.48,0,.84-.11,1.08-.34Z"/>
    <path class="cls-1" d="M266.37,71.69c-.56-.25-1-.58-1.33-1.01s-.51-.91-.55-1.44h2.49c.03.29.16.52.4.69s.53.27.87.27c.31,0,.56-.06.73-.18.17-.12.26-.28.26-.48,0-.24-.12-.41-.37-.52-.25-.11-.64-.24-1.19-.38-.59-.14-1.08-.28-1.47-.43s-.73-.39-1.02-.72-.43-.77-.43-1.33c0-.47.13-.9.39-1.29s.64-.7,1.15-.92c.51-.23,1.11-.34,1.81-.34,1.03,0,1.85.26,2.44.77.59.51.94,1.19,1.03,2.04h-2.33c-.04-.29-.17-.51-.38-.68-.21-.17-.49-.25-.83-.25-.3,0-.52.06-.68.17-.16.11-.24.27-.24.46,0,.24.13.41.38.53.25.12.64.24,1.17.35.61.16,1.11.31,1.49.46s.72.4,1.01.74c.29.34.44.79.45,1.36,0,.48-.13.91-.41,1.29-.27.38-.66.68-1.17.89-.51.22-1.09.32-1.76.32-.72,0-1.36-.12-1.92-.37Z"/>
    <path class="cls-1" d="M275.83,62.47c-.28-.26-.42-.58-.42-.97s.14-.72.42-.98c.28-.26.64-.39,1.08-.39s.79.13,1.07.39c.28.26.42.59.42.98s-.14.71-.42.97c-.28.26-.64.39-1.07.39s-.8-.13-1.08-.39ZM278.17,63.71v8.23h-2.52v-8.23h2.52Z"/>
    <path class="cls-1" d="M282.5,65.59c.35-.64.83-1.13,1.46-1.47.62-.34,1.34-.52,2.15-.52,1.03,0,1.9.27,2.59.81.69.54,1.15,1.3,1.36,2.29h-2.68c-.23-.63-.66-.94-1.31-.94-.46,0-.83.18-1.11.54-.28.36-.41.87-.41,1.54s.14,1.18.41,1.54c.28.36.64.54,1.11.54.65,0,1.09-.31,1.31-.94h2.68c-.22.96-.67,1.72-1.37,2.27s-1.56.83-2.58.83c-.81,0-1.52-.17-2.15-.52-.62-.34-1.11-.83-1.46-1.47-.35-.64-.52-1.39-.52-2.24s.17-1.6.52-2.24Z"/>
    <path class="cls-1" d="M295.44,71.54c-.64-.34-1.15-.83-1.52-1.47-.37-.64-.55-1.39-.55-2.24s.19-1.59.56-2.23c.37-.64.88-1.14,1.53-1.48.65-.34,1.38-.52,2.18-.52s1.53.17,2.18.52c.65.34,1.16.84,1.53,1.48.37.64.56,1.39.56,2.23s-.19,1.59-.57,2.23c-.38.64-.89,1.14-1.55,1.48-.65.34-1.38.52-2.19.52s-1.53-.17-2.17-.52ZM298.85,69.35c.34-.35.51-.86.51-1.52s-.17-1.17-.49-1.52c-.33-.35-.74-.53-1.22-.53s-.9.17-1.22.52-.49.86-.49,1.53.16,1.17.48,1.52c.32.35.72.53,1.2.53s.89-.18,1.23-.53ZM299.57,61.6l-3.55,1.49v-1.74l3.55-1.71v1.96Z"/>
    <path class="cls-1" d="M308.27,61.03v10.91h-2.52v-10.91h2.52Z"/>
    <path class="cls-1" d="M314.14,71.54c-.64-.34-1.15-.83-1.52-1.47-.37-.64-.55-1.39-.55-2.24s.19-1.59.56-2.23c.37-.64.88-1.14,1.53-1.48.65-.34,1.38-.52,2.18-.52s1.53.17,2.18.52c.65.34,1.16.84,1.53,1.48.37.64.56,1.39.56,2.23s-.19,1.59-.57,2.23c-.38.64-.89,1.14-1.55,1.48-.65.34-1.38.52-2.19.52s-1.53-.17-2.17-.52ZM317.55,69.35c.34-.35.51-.86.51-1.52s-.17-1.17-.49-1.52c-.33-.35-.74-.53-1.22-.53s-.9.17-1.22.52-.49.86-.49,1.53.16,1.17.48,1.52c.32.35.72.53,1.2.53s.89-.18,1.23-.53Z"/>
    <path class="cls-1" d="M329.1,63.95c.44.24.77.55,1.01.93v-1.17h2.52v8.21c0,.76-.15,1.44-.45,2.06-.3.61-.76,1.1-1.37,1.47-.61.36-1.38.55-2.29.55-1.22,0-2.21-.29-2.96-.86s-1.19-1.35-1.3-2.34h2.49c.08.31.27.56.56.74.29.18.66.27,1.09.27.52,0,.94-.15,1.25-.45.31-.3.46-.78.46-1.44v-1.17c-.25.38-.58.7-1.02.94s-.94.36-1.52.36c-.68,0-1.29-.17-1.84-.52-.55-.35-.99-.85-1.3-1.49-.32-.64-.48-1.39-.48-2.23s.16-1.59.48-2.23c.32-.64.75-1.13,1.3-1.47.55-.34,1.17-.52,1.84-.52.58,0,1.09.12,1.53.35ZM329.58,66.34c-.35-.36-.77-.55-1.28-.55s-.93.18-1.28.54c-.35.36-.52.85-.52,1.48s.17,1.13.52,1.5c.35.37.77.55,1.28.55s.93-.18,1.28-.55c.35-.36.52-.86.52-1.49s-.17-1.13-.52-1.49Z"/>
    <path class="cls-1" d="M336.91,65.59c.32-.64.75-1.13,1.3-1.47.55-.34,1.17-.52,1.84-.52.58,0,1.09.12,1.53.35.44.24.77.55,1.01.93v-1.17h2.52v8.23h-2.52v-1.17c-.25.38-.59.69-1.02.93-.44.24-.95.35-1.53.35-.67,0-1.28-.17-1.83-.52-.55-.35-.99-.85-1.3-1.49-.32-.64-.48-1.39-.48-2.23s.16-1.59.48-2.23ZM342.07,66.34c-.35-.36-.77-.55-1.28-.55s-.93.18-1.28.54c-.35.36-.52.85-.52,1.48s.17,1.13.52,1.5c.35.37.77.55,1.28.55s.93-.18,1.28-.55c.35-.36.52-.86.52-1.49s-.17-1.13-.52-1.49Z"/>
    <path class="cls-1" d="M355.26,64.02c.44-.8,1.06-1.42,1.85-1.87.79-.45,1.69-.67,2.69-.67,1.23,0,2.28.32,3.16.97.88.65,1.46,1.53,1.75,2.65h-2.77c-.21-.43-.5-.76-.88-.99-.38-.23-.81-.34-1.29-.34-.78,0-1.41.27-1.89.81-.48.54-.72,1.26-.72,2.17s.24,1.63.72,2.17c.48.54,1.11.81,1.89.81.48,0,.91-.11,1.29-.34.38-.23.67-.56.88-.99h2.77c-.29,1.12-.88,2-1.75,2.65-.88.64-1.93.97-3.16.97-1,0-1.9-.22-2.69-.67-.79-.45-1.41-1.07-1.85-1.87-.44-.8-.66-1.71-.66-2.73s.22-1.93.66-2.74Z"/>
    <path class="cls-1" d="M371.26,61.03v10.91h-2.52v-10.91h2.52Z"/>
    <path class="cls-1" d="M378.74,61.66l-3.55,1.49v-1.74l3.55-1.71v1.96ZM378.28,63.71v8.23h-2.52v-8.23h2.52Z"/>
    <path class="cls-1" d="M390.1,64.56c.58.62.86,1.48.86,2.57v4.81h-2.51v-4.47c0-.55-.14-.98-.43-1.28s-.67-.46-1.15-.46-.87.15-1.15.46c-.29.3-.43.73-.43,1.28v4.47h-2.52v-8.23h2.52v1.09c.25-.36.6-.65,1.03-.86.43-.21.92-.32,1.46-.32.96,0,1.73.31,2.31.94Z"/>
    <path class="cls-1" d="M395.38,62.47c-.28-.26-.42-.58-.42-.97s.14-.72.42-.98c.28-.26.64-.39,1.08-.39s.79.13,1.07.39c.28.26.42.59.42.98s-.14.71-.42.97c-.28.26-.64.39-1.07.39s-.8-.13-1.08-.39ZM397.72,63.71v8.23h-2.52v-8.23h2.52Z"/>
    <path class="cls-1" d="M402.05,65.59c.35-.64.83-1.13,1.46-1.47.62-.34,1.34-.52,2.15-.52,1.03,0,1.9.27,2.59.81.69.54,1.15,1.3,1.36,2.29h-2.68c-.23-.63-.66-.94-1.31-.94-.46,0-.83.18-1.11.54-.28.36-.41.87-.41,1.54s.14,1.18.41,1.54c.28.36.64.54,1.11.54.65,0,1.09-.31,1.31-.94h2.68c-.22.96-.67,1.72-1.37,2.27s-1.56.83-2.58.83c-.81,0-1.52-.17-2.15-.52-.62-.34-1.11-.83-1.46-1.47-.35-.64-.52-1.39-.52-2.24s.17-1.6.52-2.24Z"/>
    <path class="cls-1" d="M413.4,65.59c.32-.64.75-1.13,1.3-1.47.55-.34,1.17-.52,1.84-.52.58,0,1.09.12,1.53.35.44.24.77.55,1.01.93v-1.17h2.52v8.23h-2.52v-1.17c-.25.38-.59.69-1.02.93-.44.24-.95.35-1.53.35-.67,0-1.28-.17-1.83-.52-.55-.35-.99-.85-1.3-1.49-.32-.64-.48-1.39-.48-2.23s.16-1.59.48-2.23ZM418.57,66.34c-.35-.36-.77-.55-1.28-.55s-.93.18-1.28.54c-.35.36-.52.85-.52,1.48s.17,1.13.52,1.5c.35.37.77.55,1.28.55s.93-.18,1.28-.55c.35-.36.52-.86.52-1.49s-.17-1.13-.52-1.49Z"/>
  </g>
  <g>
    <path class="cls-3" d="M298.11,28.93l-8.55,24.81h-8.83l-8.59-24.81h7.39l5.63,17.91,5.6-17.91h7.35Z"/>
    <path class="cls-3" d="M300.59,31.17c-.74-.67-1.11-1.51-1.11-2.52s.37-1.89,1.11-2.57c.74-.68,1.72-1.02,2.94-1.02s2.16.34,2.9,1.02c.74.68,1.11,1.54,1.11,2.57s-.37,1.85-1.11,2.52c-.74.67-1.71,1-2.9,1s-2.2-.33-2.94-1ZM306.94,34v19.74h-6.9v-19.74h6.9Z"/>
    <path class="cls-3" d="M320.14,47.23l3.7-13.23h7.36l-6.79,19.74h-8.59l-6.79-19.74h7.36l3.77,13.23Z"/>
    <path class="cls-3" d="M333.28,38.51c.74-1.52,1.75-2.7,3.03-3.52,1.28-.82,2.7-1.23,4.28-1.23,1.36,0,2.53.27,3.52.81.99.54,1.75,1.27,2.29,2.18v-2.74h6.9v19.74h-6.9v-2.75c-.54.92-1.31,1.64-2.31,2.18-1,.54-2.16.81-3.5.81-1.57,0-3-.41-4.28-1.23-1.28-.82-2.29-2-3.03-3.54-.74-1.54-1.11-3.33-1.11-5.37s.37-3.82,1.11-5.35ZM345.35,40.86c-.69-.73-1.54-1.09-2.55-1.09s-1.89.36-2.57,1.07c-.68.72-1.02,1.72-1.02,3.01s.34,2.27,1.02,3.01,1.54,1.11,2.57,1.11,1.86-.36,2.55-1.09c.69-.73,1.04-1.74,1.04-3.03s-.35-2.26-1.04-2.99Z"/>
    <path class="cls-3" d="M375.36,36.09c1.34,1.51,2.01,3.56,2.01,6.14v11.51h-6.9v-10.59c0-1.13-.29-2.01-.88-2.66-.59-.65-1.37-.97-2.36-.97s-1.84.32-2.43.97c-.59.65-.88,1.53-.88,2.66v10.59h-6.9v-19.74h6.9v2.82c.61-.89,1.43-1.61,2.46-2.16,1.03-.55,2.22-.83,3.55-.83,2.28,0,4.08.76,5.42,2.27Z"/>
    <path class="cls-3" d="M381.09,38.51c.84-1.52,2.02-2.7,3.54-3.52,1.51-.82,3.24-1.23,5.19-1.23,2.51,0,4.62.69,6.33,2.06,1.71,1.37,2.82,3.29,3.31,5.75h-7.32c-.42-1.29-1.24-1.94-2.46-1.94-.87,0-1.55.36-2.06,1.07-.5.72-.76,1.77-.76,3.15s.25,2.44.76,3.17c.5.73,1.19,1.09,2.06,1.09,1.24,0,2.06-.65,2.46-1.94h7.32c-.49,2.44-1.6,4.35-3.31,5.74-1.71,1.38-3.82,2.08-6.33,2.08-1.95,0-3.68-.41-5.19-1.23-1.51-.82-2.69-1.99-3.54-3.52-.84-1.52-1.27-3.32-1.27-5.38s.42-3.82,1.27-5.35Z"/>
    <path class="cls-3" d="M405.99,52.76c-1.56-.82-2.79-1.99-3.68-3.52-.89-1.52-1.34-3.32-1.34-5.38s.45-3.82,1.35-5.35c.9-1.52,2.13-2.7,3.7-3.52s3.33-1.23,5.3-1.23,3.74.41,5.3,1.23,2.79,1.99,3.7,3.52c.9,1.53,1.36,3.31,1.36,5.35s-.45,3.83-1.36,5.37c-.9,1.54-2.14,2.72-3.71,3.54s-3.34,1.23-5.31,1.23-3.74-.41-5.3-1.23ZM413.7,46.93c.65-.72.97-1.74.97-3.08s-.32-2.36-.97-3.06c-.65-.7-1.44-1.06-2.38-1.06s-1.72.35-2.36,1.06c-.63.7-.95,1.72-.95,3.06s.3,2.39.92,3.1,1.4,1.06,2.36,1.06,1.76-.36,2.41-1.07Z"/>
  </g>
</svg>